<svg width="21" height="20" viewBox="0 0 21 20" fill="none" xmlns="http://www.w3.org/2000/svg">
<path d="M10.5 5.83325V10.8333" stroke="white" stroke-opacity="0.8" stroke-width="1.5" stroke-linecap="round"/>
<ellipse cx="10.5" cy="13.3333" rx="0.875" ry="0.833333" fill="white" fill-opacity="0.8"/>
<path d="M6.86269 3.16851C8.63782 2.16734 9.52539 1.66675 10.5 1.66675C11.4746 1.66675 12.3622 2.16734 14.1373 3.16851L14.7377 3.50713C16.5128 4.5083 17.4004 5.00889 17.8877 5.83341C18.375 6.65794 18.375 7.65911 18.375 9.66146V10.3387C18.375 12.341 18.375 13.3422 17.8877 14.1667C17.4004 14.9913 16.5128 15.4919 14.7377 16.493L14.1373 16.8317C12.3622 17.8328 11.4746 18.3334 10.5 18.3334C9.52539 18.3334 8.63782 17.8328 6.86269 16.8317L6.26231 16.493C4.48718 15.4919 3.59961 14.9913 3.11231 14.1667C2.625 13.3422 2.625 12.341 2.625 10.3387V9.66146C2.625 7.65911 2.625 6.65794 3.11231 5.83341C3.59961 5.00889 4.48718 4.5083 6.26231 3.50713L6.86269 3.16851Z" stroke="white" stroke-opacity="0.8" stroke-width="1.5"/>
</svg>
