<svg width="18" height="21" viewBox="0 0 18 21" fill="none" xmlns="http://www.w3.org/2000/svg">
<path d="M8.99911 0C8.28796 0 7.71341 0.574546 7.71341 1.2857V2.05712C4.78042 2.65175 2.57062 5.24725 2.57062 8.35703V9.11238C2.57062 11.0007 1.87554 12.8248 0.62199 14.2391L0.324673 14.5726C-0.0128225 14.9502 -0.0931786 15.4926 0.111729 15.9547C0.316637 16.4167 0.778685 16.7141 1.28493 16.7141H16.7133C17.2195 16.7141 17.6776 16.4167 17.8865 15.9547C18.0954 15.4926 18.011 14.9502 17.6735 14.5726L17.3762 14.2391C16.1227 12.8248 15.4276 11.0048 15.4276 9.11238V8.35703C15.4276 5.24725 13.2178 2.65175 10.2848 2.05712V1.2857C10.2848 0.574546 9.71026 0 8.99911 0ZM10.8192 19.8198C11.3013 19.3377 11.5705 18.6828 11.5705 17.9998H8.99911H6.42771C6.42771 18.6828 6.69691 19.3377 7.17904 19.8198C7.66118 20.302 8.31608 20.5711 8.99911 20.5711C9.68213 20.5711 10.337 20.302 10.8192 19.8198Z" fill="#666666"/>
</svg>
