<svg width="28" height="20" viewBox="0 0 28 20" fill="none" xmlns="http://www.w3.org/2000/svg">
<path d="M6.3 19.6C2.82187 19.6 0 16.7781 0 13.3C0 10.5525 1.75875 8.21625 4.20875 7.35438C4.20437 7.23625 4.2 7.11812 4.2 7C4.2 3.1325 7.3325 0 11.2 0C13.7944 0 16.0563 1.40875 17.2681 3.50875C17.9331 3.0625 18.7381 2.8 19.6 2.8C21.9187 2.8 23.8 4.68125 23.8 7C23.8 7.53375 23.6994 8.04125 23.52 8.51375C26.075 9.03 28 11.2919 28 14C28 17.0931 25.4931 19.6 22.4 19.6H6.3ZM9.75625 10.1062C9.345 10.5175 9.345 11.1825 9.75625 11.5894C10.1675 11.9962 10.8325 12.0006 11.2394 11.5894L12.9456 9.88312L12.95 15.75C12.95 16.3319 13.4181 16.8 14 16.8C14.5819 16.8 15.05 16.3319 15.05 15.75V9.88312L16.7562 11.5894C17.1675 12.0006 17.8325 12.0006 18.2394 11.5894C18.6462 11.1781 18.6506 10.5131 18.2394 10.1062L14.7394 6.60625C14.3281 6.195 13.6631 6.195 13.2562 6.60625L9.75625 10.1062Z" fill="#F1A027"/>
</svg>
