<svg width="16" height="16" viewBox="0 0 16 16" fill="none" xmlns="http://www.w3.org/2000/svg">
<g clip-path="url(#clip0_2602_12)">
<path d="M4 9.66675H9.33333" stroke="white" stroke-opacity="0.8" stroke-width="1.5" stroke-linecap="round"/>
<path d="M4 12H7.66667" stroke="white" stroke-opacity="0.8" stroke-width="1.5" stroke-linecap="round"/>
<path d="M8.66663 1.66675V3.33341C8.66663 4.90476 8.66663 5.69044 9.15478 6.17859C9.64294 6.66675 10.4286 6.66675 12 6.66675H14.6666" stroke="white" stroke-opacity="0.8" stroke-width="1.5"/>
<path d="M2.08337 6.66658C2.08337 6.25237 1.74759 5.91658 1.33337 5.91658C0.91916 5.91658 0.583374 6.25237 0.583374 6.66658H1.33337H2.08337ZM13.9167 9.33325C13.9167 9.74747 14.2525 10.0833 14.6667 10.0833C15.0809 10.0833 15.4167 9.74747 15.4167 9.33325H14.6667H13.9167ZM10.262 2.70235L9.76028 3.25982V3.25982L10.262 2.70235ZM12.9012 5.07761L12.3995 5.63509V5.63509L12.9012 5.07761ZM14.436 6.76932L13.7509 7.07444L13.7509 7.07445L14.436 6.76932ZM2.11442 13.8855L2.64475 13.3552H2.64475L2.11442 13.8855ZM13.8857 13.8855L13.3553 13.3552L13.3553 13.3552L13.8857 13.8855ZM0.654638 3.9265C0.61409 4.33873 0.915394 4.70577 1.32762 4.74632C1.73984 4.78686 2.10689 4.48556 2.14743 4.07334L1.40104 3.99992L0.654638 3.9265ZM15.3454 12.0733C15.386 11.6611 15.0847 11.2941 14.6725 11.2535C14.2602 11.213 13.8932 11.5143 13.8526 11.9265L14.599 11.9999L15.3454 12.0733ZM9.33337 14.6666V13.9166H6.66671V14.6666V15.4166H9.33337V14.6666ZM1.33337 9.33325H2.08337V6.66658H1.33337H0.583374V9.33325H1.33337ZM14.6667 9.04185H13.9167V9.33325H14.6667H15.4167V9.04185H14.6667ZM10.262 2.70235L9.76028 3.25982L12.3995 5.63509L12.9012 5.07761L13.4029 4.52014L10.7637 2.14488L10.262 2.70235ZM14.6667 9.04185H15.4167C15.4167 7.93836 15.4318 7.16178 15.1212 6.46419L14.436 6.76932L13.7509 7.07445C13.9016 7.41271 13.9167 7.80587 13.9167 9.04185H14.6667ZM12.9012 5.07761L12.3995 5.63509C13.3182 6.46192 13.6003 6.73618 13.7509 7.07444L14.436 6.76932L15.1212 6.46419C14.8105 5.76659 14.2231 5.25834 13.4029 4.52014L12.9012 5.07761ZM6.68657 1.33325V2.08325C7.76003 2.08325 8.10278 2.09483 8.40416 2.21048L8.67286 1.51026L8.94155 0.810049C8.32036 0.571673 7.64644 0.583252 6.68657 0.583252V1.33325ZM10.262 2.70235L10.7637 2.14488C10.0537 1.50584 9.56264 1.04838 8.94155 0.810049L8.67286 1.51026L8.40416 2.21048C8.70564 2.32617 8.96651 2.54543 9.76028 3.25982L10.262 2.70235ZM6.66671 14.6666V13.9166C5.38843 13.9166 4.50516 13.915 3.84058 13.8256C3.19758 13.7392 2.8727 13.5832 2.64475 13.3552L2.11442 13.8855L1.58409 14.4159C2.13719 14.969 2.83138 15.2035 3.64071 15.3123C4.42847 15.4182 5.43083 15.4166 6.66671 15.4166V14.6666ZM1.33337 9.33325H0.583374C0.583374 10.5691 0.581781 11.5715 0.687693 12.3592C0.796506 13.1686 1.03099 13.8628 1.58409 14.4159L2.11442 13.8855L2.64475 13.3552C2.41681 13.1273 2.26077 12.8024 2.17432 12.1594C2.08497 11.4948 2.08337 10.6115 2.08337 9.33325H1.33337ZM9.33337 14.6666V15.4166C10.5693 15.4166 11.5716 15.4182 12.3594 15.3123C13.1687 15.2035 13.8629 14.969 14.416 14.4159L13.8857 13.8855L13.3553 13.3552C13.1274 13.5832 12.8025 13.7392 12.1595 13.8256C11.4949 13.915 10.6117 13.9166 9.33337 13.9166V14.6666ZM6.68657 1.33325V0.583252C5.444 0.583252 4.43693 0.581673 3.64612 0.687511C2.83431 0.796161 2.13778 1.03028 1.58409 1.58397L2.11442 2.1143L2.64475 2.64463C2.87212 2.41727 3.19796 2.26087 3.8451 2.17425C4.51326 2.08483 5.40174 2.08325 6.68657 2.08325V1.33325ZM1.40104 3.99992L2.14743 4.07334C2.22622 3.27234 2.39103 2.89835 2.64475 2.64463L2.11442 2.1143L1.58409 1.58397C0.966907 2.20116 0.74636 2.99401 0.654638 3.9265L1.40104 3.99992ZM14.599 11.9999L13.8526 11.9265C13.7739 12.7275 13.6091 13.1015 13.3553 13.3552L13.8857 13.8855L14.416 14.4159C15.0332 13.7987 15.2537 13.0058 15.3454 12.0733L14.599 11.9999Z" fill="white" fill-opacity="0.8"/>
</g>
<defs>
<clipPath id="clip0_2602_12">
<rect width="16" height="16" fill="white"/>
</clipPath>
</defs>
</svg>
