<svg width="15" height="11" viewBox="0 0 15 11" fill="none" xmlns="http://www.w3.org/2000/svg">
<path d="M7.0708 0C5.08687 0 3.49826 0.903569 2.34179 1.97901C1.19269 3.04464 0.424162 4.32142 0.0607699 5.19798C-0.0202566 5.39195 -0.0202566 5.60802 0.0607699 5.80199C0.424162 6.67855 1.19269 7.95534 2.34179 9.02096C3.49826 10.0964 5.08687 11 7.0708 11C9.05472 11 10.6433 10.0964 11.7998 9.02096C12.9489 7.95288 13.7174 6.67855 14.0833 5.80199C14.1643 5.60802 14.1643 5.39195 14.0833 5.19798C13.7174 4.32142 12.9489 3.04464 11.7998 1.97901C10.6433 0.903569 9.05472 0 7.0708 0ZM3.53509 5.49999C3.53509 4.56226 3.9076 3.66294 4.57068 2.99986C5.23375 2.33679 6.13307 1.96428 7.0708 1.96428C8.00852 1.96428 8.90785 2.33679 9.57092 2.99986C10.234 3.66294 10.6065 4.56226 10.6065 5.49999C10.6065 6.43771 10.234 7.33703 9.57092 8.00011C8.90785 8.66318 8.00852 9.03569 7.0708 9.03569C6.13307 9.03569 5.23375 8.66318 4.57068 8.00011C3.9076 7.33703 3.53509 6.43771 3.53509 5.49999ZM7.0708 3.92856C7.0708 4.7953 6.36611 5.49999 5.49937 5.49999C5.32504 5.49999 5.15808 5.47052 5.00094 5.41896C4.86589 5.37476 4.70875 5.45825 4.71366 5.60066C4.72103 5.77008 4.74558 5.93949 4.79223 6.10891C5.12861 7.36605 6.42258 8.11248 7.67972 7.7761C8.93686 7.43971 9.68329 6.14574 9.34691 4.8886C9.07436 3.86963 8.17325 3.18459 7.17147 3.14285C7.02906 3.13794 6.94557 3.29263 6.98977 3.43013C7.04133 3.58727 7.0708 3.75423 7.0708 3.92856Z" fill="#666666"/>
</svg>
