<svg width="21" height="21" viewBox="0 0 21 21" fill="none" xmlns="http://www.w3.org/2000/svg">
<path d="M8.6546 0.301042C8.40855 0.0426846 8.03946 -0.0557373 7.69499 0.0344828C7.35051 0.124703 7.08395 0.399464 6.99373 0.743941L6.34579 3.30701L3.80322 2.58935C3.45874 2.49093 3.08966 2.58935 2.83951 2.83951C2.58935 3.08966 2.49093 3.45874 2.58935 3.80322L3.30701 6.34579L0.743941 6.99783C0.399464 7.08395 0.128804 7.35461 0.0344828 7.69909C-0.0598382 8.04356 0.0426846 8.40855 0.301042 8.6546L2.19566 10.5L0.301042 12.3454C0.0426846 12.5915 -0.0557373 12.9606 0.0344828 13.305C0.124703 13.6495 0.399464 13.9161 0.743941 14.0063L3.30701 14.6542L2.58935 17.1968C2.49093 17.5413 2.58935 17.9104 2.83951 18.1605C3.08966 18.4107 3.45874 18.5091 3.80322 18.4107L6.34579 17.693L6.99373 20.2561C7.07985 20.6006 7.35051 20.8712 7.69499 20.9655C8.03946 21.0599 8.40444 20.9573 8.6546 20.7031L10.5 18.8085L12.3454 20.7031C12.5956 20.9573 12.9606 21.0599 13.305 20.9655C13.6495 20.8712 13.9161 20.6006 14.0063 20.2561L14.6542 17.693L17.1968 18.4107C17.5413 18.5091 17.9104 18.4107 18.1605 18.1605C18.4107 17.9104 18.5091 17.5413 18.4107 17.1968L17.693 14.6542L20.2561 14.0063C20.6006 13.9202 20.8712 13.6495 20.9655 13.305C21.0599 12.9606 20.9573 12.5915 20.7031 12.3454L18.8085 10.5L20.7031 8.6546C20.9573 8.40444 21.0599 8.03946 20.9655 7.69499C20.8712 7.35051 20.6006 7.08395 20.2561 6.99373L17.693 6.34579L18.4107 3.80322C18.5091 3.45874 18.4107 3.08966 18.1605 2.83951C17.9104 2.58935 17.5413 2.49093 17.1968 2.58935L14.6542 3.30701L14.0022 0.743941C13.9161 0.399464 13.6454 0.128804 13.3009 0.0344828C12.9565 -0.0598382 12.5915 0.0426846 12.3454 0.301042L10.5 2.19566L8.6546 0.301042Z" fill="#F1A027"/>
</svg>
