<svg width="14" height="13" viewBox="0 0 14 13" fill="none" xmlns="http://www.w3.org/2000/svg">
<path d="M13.9964 6.21169C13.9964 6.64931 13.6317 6.99211 13.2184 6.99211H12.4404L12.4574 10.8869C12.4574 10.9525 12.4526 11.0182 12.4453 11.0838V11.4777C12.4453 12.0149 12.0101 12.4501 11.4728 12.4501H11.0838C11.0571 12.4501 11.0303 12.4501 11.0036 12.4477C10.9695 12.4501 10.9355 12.4501 10.9015 12.4501L10.1113 12.4477H9.52784C8.99055 12.4477 8.55536 12.0125 8.55536 11.4752V10.8917V9.33578C8.55536 8.90545 8.2077 8.55779 7.77738 8.55779H6.22142C5.7911 8.55779 5.44344 8.90545 5.44344 9.33578V10.8917V11.4752C5.44344 12.0125 5.00825 12.4477 4.47096 12.4477H3.88748H3.11193C3.07546 12.4477 3.03899 12.4453 3.00252 12.4428C2.97335 12.4453 2.94417 12.4477 2.915 12.4477H2.52601C1.98871 12.4477 1.55353 12.0125 1.55353 11.4752V8.75229C1.55353 8.73041 1.55353 8.7061 1.55596 8.68422V6.98968H0.777981C0.340367 6.98968 0 6.64931 0 6.20926C0 5.99046 0.0729358 5.79596 0.243119 5.62578L6.47426 0.194495C6.64445 0.0243119 6.83894 0 7.00912 0C7.17931 0 7.3738 0.0486238 7.51968 0.170183L13.7289 5.62821C13.9234 5.79839 14.0207 5.99289 13.9964 6.21169Z" fill="#666666"/>
</svg>
