<svg width="20" height="23" viewBox="0 0 20 23" fill="none" xmlns="http://www.w3.org/2000/svg">
<path d="M9.79217 0.0200893C9.93056 -0.00669643 10.0734 -0.00669643 10.2118 0.0200893L19.1404 1.8058C19.6404 1.90402 20.002 2.34598 20.002 2.85491C20.002 3.36384 19.6404 3.8058 19.1404 3.90402L15.7163 4.59152V7.14063C15.7163 10.2969 13.1582 12.8549 10.002 12.8549C6.84574 12.8549 4.2877 10.2969 4.2877 7.14063V4.59152L2.14484 4.16295V7.0692L2.84574 10.5692C2.88592 10.779 2.83234 10.9978 2.69842 11.1629C2.56449 11.3281 2.35913 11.4263 2.14484 11.4263H0.716273C0.501987 11.4263 0.301094 11.3326 0.162702 11.1629C0.0243087 10.9933 -0.0292627 10.779 0.0153802 10.5692L0.716273 7.0692V3.86384C0.292166 3.71652 0.00198729 3.31473 0.00198729 2.85491C0.00198729 2.34598 0.363594 1.90402 0.863594 1.8058L9.79217 0.0200893ZM4.99752 14.6272C5.46627 14.4754 5.97074 14.6451 6.31002 15.0067L9.47967 18.3772C9.76092 18.6763 10.2386 18.6763 10.5198 18.3772L13.6895 15.0067C14.0288 14.6451 14.5332 14.4754 15.002 14.6272C17.9038 15.5603 20.002 18.2746 20.002 21.4844C20.002 22.2433 19.3859 22.8549 18.6315 22.8549H1.37252C0.618059 22.8549 0.00198729 22.2388 0.00198729 21.4844C0.00198729 18.2746 2.1002 15.5603 4.99752 14.6272Z" fill="#F1A027"/>
</svg>
